<?xml version="1.0" encoding="UTF-8"?>
<svg width="212px" height="212px" viewBox="0 0 212 212" version="1.1" xmlns="http://www.w3.org/2000/svg" xmlns:xlink="http://www.w3.org/1999/xlink">
    <title>Artboard</title>
    <g id="Artboard" stroke="none" stroke-width="1" fill="none" fill-rule="evenodd">
        <rect id="Rectangle" stroke="#34495E" stroke-width="10" x="14" y="14" width="183" height="183" rx="20"></rect>
        <path d="M129.983709,90.9038647 C132.534329,95.1731025 134,100.165388 134,105.5 C134,121.240115 121.240115,134 105.5,134 C89.7598846,134 77,121.240115 77,105.5 C77,100.165388 78.4656712,95.1731025 81.0162913,90.9038647 L105.5,133 Z M105.5,77 C112.658891,77 119.201292,79.6395044 124.2071,83.998409 L112.08177,84 L105.5,95.3159393 L98.9182304,84 L86.7928999,83.998409 C91.798708,79.6395044 98.3411093,77 105.5,77 Z" id="Combined-Shape" fill="#34495E"></path>
        <path d="M178.323979,26.2473469 L142.203249,26.2473469 C138.195105,26.2473469 134.945899,29.4784655 134.945899,33.4642979 C134.945899,37.4501302 138.195105,40.6812488 142.203249,40.6812488 L161.295296,40.6812488 L126.431557,75.350915 L136.700944,85.5631364 L171.398665,51.0585638 L171.232648,69.5962221 C171.232648,73.5820545 174.481853,76.813173 178.489997,76.813173 C182.498141,76.813173 185.747347,73.5820545 185.747347,69.5962221 L185.747347,33.4642979 C185.747347,31.3180804 184.846107,29.5963895 183.446815,28.4171492 C182.166106,27.0728152 180.33991,26.2473469 178.323979,26.2473469 L178.323979,26.2473469 Z" id="Path" fill="#34495E"></path>
        <path d="M73.7978539,127.931557 L39.0902936,162.473449 L39.2562451,143.904823 C39.2562451,139.940999 36.0083381,136.685001 32.001796,136.685001 C27.9952539,136.685001 24.7473469,139.940999 24.7473469,143.904823 L24.7473469,180.027525 C24.7473469,182.198191 25.6482262,183.920566 27.0469599,185.076682 C28.3508641,186.374362 30.2000374,187.247347 32.2151622,187.247347 L68.3214561,187.247347 C72.3279982,187.247347 75.5759051,183.991349 75.5759051,180.027525 C75.5759051,176.063702 72.3042909,172.807704 68.2977487,172.807704 L49.213332,172.807704 L84.0631364,138.124247 L73.7978539,127.931557 L73.7978539,127.931557 Z" id="Path" fill="#34495E"></path>
        <path d="M178.472098,136.685001 C174.467157,136.685001 171.220548,139.940999 171.220548,143.904823 L171.386433,162.473449 L136.692739,127.931557 L126.431557,138.124247 L161.267439,172.807704 L142.190647,172.807704 C138.185705,172.807704 134.939096,176.063702 134.939096,180.027525 C134.939096,183.991349 138.185705,187.247347 142.190647,187.247347 L178.282515,187.247347 C180.296835,187.247347 182.145269,186.374362 183.448653,185.076682 C184.846828,183.920566 185.747347,182.174596 185.747347,180.027525 L185.747347,143.904823 C185.747347,139.940999 182.47704,136.685001 178.472098,136.685001 L178.472098,136.685001 Z" id="Path" fill="#34495E"></path>
        <path d="M68.3040473,40.6869902 C72.3089888,40.6869902 75.5555981,37.4545864 75.5555981,33.4671686 C75.5555981,29.4797507 72.3089888,26.2473469 68.3040473,26.2473469 L32.2121786,26.2473469 C30.197859,26.2473469 28.3731223,27.0731435 27.0460411,28.4180123 C25.6478663,29.5977217 24.7473469,31.3200974 24.7473469,33.4671686 L24.7473469,69.5898709 C24.7473469,73.5772887 27.9939563,76.8096925 31.9988977,76.8096925 C36.0038391,76.8096925 39.2504485,73.5772887 39.2504485,69.5898709 L39.0845633,51.0448389 L73.7545593,85.5631364 L84.0631364,75.3704471 L49.2272553,40.6869902 L68.3040473,40.6869902 L68.3040473,40.6869902 Z" id="Path" fill="#34495E"></path>
    </g>
</svg>